<svg xmlns="http://www.w3.org/2000/svg" width="512" height="512" id="microsoft-excel">
  <path fill="#107B10" d="M112 120h288v280H112z"></path>
  <path fill="#066306" d="M384 96H128l-16 24h288z"></path>
  <path fill="#292" d="M117.333 112 112 120h288l-5.334-8z"></path>
  <path fill="#FFF" d="m264 352-104-32V200l104-32zM272 200v16h24v8h-24v12h24v8h-24v12h24v8h-24v12h24v8h-24v12h24v8h-24v16h80V200h-80zm64 104h-32v-8h32v8zm0-20h-32v-8h32v8zm0-20h-32v-8h32v8zm0-20h-32v-8h32v8zm0-20h-32v-8h32v8z"></path>
  <path fill="#107B10" d="m234.408 229.194-18.005 1.796-10.402 19.849-9.802-17.832-14.091 1.407 15.116 26.888-16.103 28.273 13.988 1.397 10.892-19.073 11.743 21.331 18.069 1.804-20.491-33.871 19.086-31.969"></path>
</svg>
